<mxfile host="app.diagrams.net" modified="2021-11-11T10:59:22.614Z" agent="5.0 (X11; Linux x86_64) AppleWebKit/537.36 (KHTML, like Gecko) Chrome/81.0.4044.113 Safari/537.36" etag="CgfsRLETL3GEiJqu61Vq" version="15.7.3" type="github">
  <diagram id="C5RBs43oDa-KdzZeNtuy" name="Page-1">
    <mxGraphModel dx="801" dy="494" grid="1" gridSize="10" guides="1" tooltips="1" connect="1" arrows="1" fold="1" page="1" pageScale="1" pageWidth="827" pageHeight="1169" math="0" shadow="0">
      <root>
        <mxCell id="WIyWlLk6GJQsqaUBKTNV-0" />
        <mxCell id="WIyWlLk6GJQsqaUBKTNV-1" parent="WIyWlLk6GJQsqaUBKTNV-0" />
        <mxCell id="lwnyyeqiQg4ym-uv4TCR-10" value="NoSQL OrintÃ©e Objet Document" style="rounded=1;whiteSpace=wrap;html=1;" vertex="1" parent="WIyWlLk6GJQsqaUBKTNV-1">
          <mxGeometry x="290" y="10" width="270" height="30" as="geometry" />
        </mxCell>
        <mxCell id="lwnyyeqiQg4ym-uv4TCR-35" style="edgeStyle=orthogonalEdgeStyle;rounded=0;orthogonalLoop=1;jettySize=auto;html=1;exitX=1;exitY=0.25;exitDx=0;exitDy=0;entryX=0;entryY=0.5;entryDx=0;entryDy=0;" edge="1" parent="WIyWlLk6GJQsqaUBKTNV-1" source="lwnyyeqiQg4ym-uv4TCR-12">
          <mxGeometry relative="1" as="geometry">
            <mxPoint x="160" y="120" as="targetPoint" />
          </mxGeometry>
        </mxCell>
        <mxCell id="lwnyyeqiQg4ym-uv4TCR-36" style="edgeStyle=orthogonalEdgeStyle;rounded=0;orthogonalLoop=1;jettySize=auto;html=1;exitX=1;exitY=0.5;exitDx=0;exitDy=0;entryX=0.008;entryY=0.1;entryDx=0;entryDy=0;entryPerimeter=0;" edge="1" parent="WIyWlLk6GJQsqaUBKTNV-1" source="lwnyyeqiQg4ym-uv4TCR-12" target="lwnyyeqiQg4ym-uv4TCR-37">
          <mxGeometry relative="1" as="geometry">
            <mxPoint x="165" y="245" as="targetPoint" />
          </mxGeometry>
        </mxCell>
        <mxCell id="lwnyyeqiQg4ym-uv4TCR-12" value="Key&lt;br&gt;CLient1&lt;br&gt;&lt;br&gt;Key&lt;br&gt;Client2&lt;br&gt;&lt;br&gt;Key&lt;br&gt;CLient 3&lt;br&gt;..&lt;br&gt;..&lt;br&gt;.." style="shape=ext;double=1;rounded=1;whiteSpace=wrap;html=1;" vertex="1" parent="WIyWlLk6GJQsqaUBKTNV-1">
          <mxGeometry x="40" y="100" width="60" height="220" as="geometry" />
        </mxCell>
        <mxCell id="lwnyyeqiQg4ym-uv4TCR-37" value="&lt;br&gt;&lt;br&gt;&lt;br&gt;&lt;br&gt;&lt;br&gt;&lt;br&gt;&lt;br&gt;&lt;br&gt;&lt;br&gt;&lt;br&gt;document" style="rounded=1;whiteSpace=wrap;html=1;" vertex="1" parent="WIyWlLk6GJQsqaUBKTNV-1">
          <mxGeometry x="150" y="200" width="236" height="150" as="geometry" />
        </mxCell>
        <mxCell id="lwnyyeqiQg4ym-uv4TCR-38" value="Client" style="shape=table;startSize=30;container=1;collapsible=0;childLayout=tableLayout;fixedRows=1;rowLines=0;fontStyle=1;align=center;pointerEvents=1;" vertex="1" parent="WIyWlLk6GJQsqaUBKTNV-1">
          <mxGeometry x="188" y="215" width="160" height="120" as="geometry" />
        </mxCell>
        <mxCell id="lwnyyeqiQg4ym-uv4TCR-39" value="" style="shape=partialRectangle;html=1;whiteSpace=wrap;collapsible=0;dropTarget=0;pointerEvents=1;fillColor=none;top=0;left=0;bottom=1;right=0;points=[[0,0.5],[1,0.5]];portConstraint=eastwest;" vertex="1" parent="lwnyyeqiQg4ym-uv4TCR-38">
          <mxGeometry y="30" width="160" height="30" as="geometry" />
        </mxCell>
        <mxCell id="lwnyyeqiQg4ym-uv4TCR-40" value="1" style="shape=partialRectangle;html=1;whiteSpace=wrap;connectable=0;fillColor=none;top=0;left=0;bottom=0;right=0;overflow=hidden;pointerEvents=1;" vertex="1" parent="lwnyyeqiQg4ym-uv4TCR-39">
          <mxGeometry width="36" height="30" as="geometry">
            <mxRectangle width="36" height="30" as="alternateBounds" />
          </mxGeometry>
        </mxCell>
        <mxCell id="lwnyyeqiQg4ym-uv4TCR-41" value="nom" style="shape=partialRectangle;html=1;whiteSpace=wrap;connectable=0;fillColor=none;top=0;left=0;bottom=0;right=0;align=left;spacingLeft=6;overflow=hidden;pointerEvents=1;" vertex="1" parent="lwnyyeqiQg4ym-uv4TCR-39">
          <mxGeometry x="36" width="124" height="30" as="geometry">
            <mxRectangle width="124" height="30" as="alternateBounds" />
          </mxGeometry>
        </mxCell>
        <mxCell id="lwnyyeqiQg4ym-uv4TCR-42" value="" style="shape=partialRectangle;html=1;whiteSpace=wrap;collapsible=0;dropTarget=0;pointerEvents=1;fillColor=none;top=0;left=0;bottom=0;right=0;points=[[0,0.5],[1,0.5]];portConstraint=eastwest;" vertex="1" parent="lwnyyeqiQg4ym-uv4TCR-38">
          <mxGeometry y="60" width="160" height="30" as="geometry" />
        </mxCell>
        <mxCell id="lwnyyeqiQg4ym-uv4TCR-43" value="2" style="shape=partialRectangle;html=1;whiteSpace=wrap;connectable=0;fillColor=none;top=0;left=0;bottom=0;right=0;overflow=hidden;pointerEvents=1;" vertex="1" parent="lwnyyeqiQg4ym-uv4TCR-42">
          <mxGeometry width="36" height="30" as="geometry">
            <mxRectangle width="36" height="30" as="alternateBounds" />
          </mxGeometry>
        </mxCell>
        <mxCell id="lwnyyeqiQg4ym-uv4TCR-44" value="prenom" style="shape=partialRectangle;html=1;whiteSpace=wrap;connectable=0;fillColor=none;top=0;left=0;bottom=0;right=0;align=left;spacingLeft=6;overflow=hidden;pointerEvents=1;" vertex="1" parent="lwnyyeqiQg4ym-uv4TCR-42">
          <mxGeometry x="36" width="124" height="30" as="geometry">
            <mxRectangle width="124" height="30" as="alternateBounds" />
          </mxGeometry>
        </mxCell>
        <mxCell id="lwnyyeqiQg4ym-uv4TCR-45" value="" style="shape=partialRectangle;html=1;whiteSpace=wrap;collapsible=0;dropTarget=0;pointerEvents=1;fillColor=none;top=0;left=0;bottom=0;right=0;points=[[0,0.5],[1,0.5]];portConstraint=eastwest;" vertex="1" parent="lwnyyeqiQg4ym-uv4TCR-38">
          <mxGeometry y="90" width="160" height="30" as="geometry" />
        </mxCell>
        <mxCell id="lwnyyeqiQg4ym-uv4TCR-46" value="3" style="shape=partialRectangle;html=1;whiteSpace=wrap;connectable=0;fillColor=none;top=0;left=0;bottom=0;right=0;overflow=hidden;pointerEvents=1;" vertex="1" parent="lwnyyeqiQg4ym-uv4TCR-45">
          <mxGeometry width="36" height="30" as="geometry">
            <mxRectangle width="36" height="30" as="alternateBounds" />
          </mxGeometry>
        </mxCell>
        <mxCell id="lwnyyeqiQg4ym-uv4TCR-47" value="table[]" style="shape=partialRectangle;html=1;whiteSpace=wrap;connectable=0;fillColor=none;top=0;left=0;bottom=0;right=0;align=left;spacingLeft=6;overflow=hidden;pointerEvents=1;" vertex="1" parent="lwnyyeqiQg4ym-uv4TCR-45">
          <mxGeometry x="36" width="124" height="30" as="geometry">
            <mxRectangle width="124" height="30" as="alternateBounds" />
          </mxGeometry>
        </mxCell>
        <mxCell id="lwnyyeqiQg4ym-uv4TCR-48" value="&lt;br&gt;&lt;br&gt;&lt;br&gt;&lt;br&gt;&lt;br&gt;&lt;br&gt;&lt;br&gt;&lt;br&gt;&lt;br&gt;document" style="rounded=1;whiteSpace=wrap;html=1;" vertex="1" parent="WIyWlLk6GJQsqaUBKTNV-1">
          <mxGeometry x="160" y="50" width="216" height="135" as="geometry" />
        </mxCell>
        <mxCell id="lwnyyeqiQg4ym-uv4TCR-49" value="Client" style="shape=table;startSize=30;container=1;collapsible=0;childLayout=tableLayout;fixedRows=1;rowLines=0;fontStyle=1;align=center;pointerEvents=1;" vertex="1" parent="WIyWlLk6GJQsqaUBKTNV-1">
          <mxGeometry x="193" y="50" width="150" height="120" as="geometry" />
        </mxCell>
        <mxCell id="lwnyyeqiQg4ym-uv4TCR-50" value="" style="shape=partialRectangle;html=1;whiteSpace=wrap;collapsible=0;dropTarget=0;pointerEvents=1;fillColor=none;top=0;left=0;bottom=1;right=0;points=[[0,0.5],[1,0.5]];portConstraint=eastwest;" vertex="1" parent="lwnyyeqiQg4ym-uv4TCR-49">
          <mxGeometry y="30" width="150" height="30" as="geometry" />
        </mxCell>
        <mxCell id="lwnyyeqiQg4ym-uv4TCR-51" value="1" style="shape=partialRectangle;html=1;whiteSpace=wrap;connectable=0;fillColor=none;top=0;left=0;bottom=0;right=0;overflow=hidden;pointerEvents=1;" vertex="1" parent="lwnyyeqiQg4ym-uv4TCR-50">
          <mxGeometry width="34" height="30" as="geometry">
            <mxRectangle width="34" height="30" as="alternateBounds" />
          </mxGeometry>
        </mxCell>
        <mxCell id="lwnyyeqiQg4ym-uv4TCR-52" value="nom" style="shape=partialRectangle;html=1;whiteSpace=wrap;connectable=0;fillColor=none;top=0;left=0;bottom=0;right=0;align=left;spacingLeft=6;overflow=hidden;pointerEvents=1;" vertex="1" parent="lwnyyeqiQg4ym-uv4TCR-50">
          <mxGeometry x="34" width="116" height="30" as="geometry">
            <mxRectangle width="116" height="30" as="alternateBounds" />
          </mxGeometry>
        </mxCell>
        <mxCell id="lwnyyeqiQg4ym-uv4TCR-53" value="" style="shape=partialRectangle;html=1;whiteSpace=wrap;collapsible=0;dropTarget=0;pointerEvents=1;fillColor=none;top=0;left=0;bottom=0;right=0;points=[[0,0.5],[1,0.5]];portConstraint=eastwest;" vertex="1" parent="lwnyyeqiQg4ym-uv4TCR-49">
          <mxGeometry y="60" width="150" height="30" as="geometry" />
        </mxCell>
        <mxCell id="lwnyyeqiQg4ym-uv4TCR-54" value="2" style="shape=partialRectangle;html=1;whiteSpace=wrap;connectable=0;fillColor=none;top=0;left=0;bottom=0;right=0;overflow=hidden;pointerEvents=1;" vertex="1" parent="lwnyyeqiQg4ym-uv4TCR-53">
          <mxGeometry width="34" height="30" as="geometry">
            <mxRectangle width="34" height="30" as="alternateBounds" />
          </mxGeometry>
        </mxCell>
        <mxCell id="lwnyyeqiQg4ym-uv4TCR-55" value="prenom" style="shape=partialRectangle;html=1;whiteSpace=wrap;connectable=0;fillColor=none;top=0;left=0;bottom=0;right=0;align=left;spacingLeft=6;overflow=hidden;pointerEvents=1;" vertex="1" parent="lwnyyeqiQg4ym-uv4TCR-53">
          <mxGeometry x="34" width="116" height="30" as="geometry">
            <mxRectangle width="116" height="30" as="alternateBounds" />
          </mxGeometry>
        </mxCell>
        <mxCell id="lwnyyeqiQg4ym-uv4TCR-56" value="" style="shape=partialRectangle;html=1;whiteSpace=wrap;collapsible=0;dropTarget=0;pointerEvents=1;fillColor=none;top=0;left=0;bottom=0;right=0;points=[[0,0.5],[1,0.5]];portConstraint=eastwest;" vertex="1" parent="lwnyyeqiQg4ym-uv4TCR-49">
          <mxGeometry y="90" width="150" height="30" as="geometry" />
        </mxCell>
        <mxCell id="lwnyyeqiQg4ym-uv4TCR-57" value="" style="shape=partialRectangle;html=1;whiteSpace=wrap;connectable=0;fillColor=none;top=0;left=0;bottom=0;right=0;overflow=hidden;pointerEvents=1;" vertex="1" parent="lwnyyeqiQg4ym-uv4TCR-56">
          <mxGeometry width="34" height="30" as="geometry">
            <mxRectangle width="34" height="30" as="alternateBounds" />
          </mxGeometry>
        </mxCell>
        <mxCell id="lwnyyeqiQg4ym-uv4TCR-58" value="" style="shape=partialRectangle;html=1;whiteSpace=wrap;connectable=0;fillColor=none;top=0;left=0;bottom=0;right=0;align=left;spacingLeft=6;overflow=hidden;pointerEvents=1;" vertex="1" parent="lwnyyeqiQg4ym-uv4TCR-56">
          <mxGeometry x="34" width="116" height="30" as="geometry">
            <mxRectangle width="116" height="30" as="alternateBounds" />
          </mxGeometry>
        </mxCell>
        <mxCell id="lwnyyeqiQg4ym-uv4TCR-70" style="edgeStyle=orthogonalEdgeStyle;rounded=0;orthogonalLoop=1;jettySize=auto;html=1;exitX=1;exitY=0.25;exitDx=0;exitDy=0;entryX=-0.023;entryY=0.413;entryDx=0;entryDy=0;entryPerimeter=0;" edge="1" parent="WIyWlLk6GJQsqaUBKTNV-1" source="lwnyyeqiQg4ym-uv4TCR-59" target="lwnyyeqiQg4ym-uv4TCR-71">
          <mxGeometry relative="1" as="geometry">
            <mxPoint x="570" y="155" as="targetPoint" />
          </mxGeometry>
        </mxCell>
        <mxCell id="lwnyyeqiQg4ym-uv4TCR-59" value="Key&lt;br&gt;Projet1&lt;br&gt;&lt;br&gt;Key&lt;br&gt;Projet2&lt;br&gt;&lt;br&gt;Key&lt;br&gt;Projet 3&lt;br&gt;..&lt;br&gt;..&lt;br&gt;.." style="shape=ext;double=1;rounded=1;whiteSpace=wrap;html=1;" vertex="1" parent="WIyWlLk6GJQsqaUBKTNV-1">
          <mxGeometry x="430" y="90" width="60" height="170" as="geometry" />
        </mxCell>
        <mxCell id="lwnyyeqiQg4ym-uv4TCR-71" value="&lt;br&gt;&lt;br&gt;&lt;br&gt;&lt;br&gt;&lt;br&gt;&lt;br&gt;&lt;br&gt;&lt;br&gt;&lt;br&gt;&lt;br&gt;document" style="shape=ext;double=1;rounded=1;whiteSpace=wrap;html=1;" vertex="1" parent="WIyWlLk6GJQsqaUBKTNV-1">
          <mxGeometry x="590" y="30" width="220" height="150" as="geometry" />
        </mxCell>
        <mxCell id="lwnyyeqiQg4ym-uv4TCR-72" value="Projet" style="shape=table;startSize=30;container=1;collapsible=0;childLayout=tableLayout;fixedRows=1;rowLines=0;fontStyle=1;align=center;pointerEvents=1;" vertex="1" parent="WIyWlLk6GJQsqaUBKTNV-1">
          <mxGeometry x="630" y="40" width="150" height="120" as="geometry" />
        </mxCell>
        <mxCell id="lwnyyeqiQg4ym-uv4TCR-73" value="" style="shape=partialRectangle;html=1;whiteSpace=wrap;collapsible=0;dropTarget=0;pointerEvents=1;fillColor=none;top=0;left=0;bottom=1;right=0;points=[[0,0.5],[1,0.5]];portConstraint=eastwest;" vertex="1" parent="lwnyyeqiQg4ym-uv4TCR-72">
          <mxGeometry y="30" width="150" height="30" as="geometry" />
        </mxCell>
        <mxCell id="lwnyyeqiQg4ym-uv4TCR-74" value="1" style="shape=partialRectangle;html=1;whiteSpace=wrap;connectable=0;fillColor=none;top=0;left=0;bottom=0;right=0;overflow=hidden;pointerEvents=1;" vertex="1" parent="lwnyyeqiQg4ym-uv4TCR-73">
          <mxGeometry width="34" height="30" as="geometry">
            <mxRectangle width="34" height="30" as="alternateBounds" />
          </mxGeometry>
        </mxCell>
        <mxCell id="lwnyyeqiQg4ym-uv4TCR-75" value="IdProjet" style="shape=partialRectangle;html=1;whiteSpace=wrap;connectable=0;fillColor=none;top=0;left=0;bottom=0;right=0;align=left;spacingLeft=6;overflow=hidden;pointerEvents=1;" vertex="1" parent="lwnyyeqiQg4ym-uv4TCR-73">
          <mxGeometry x="34" width="116" height="30" as="geometry">
            <mxRectangle width="116" height="30" as="alternateBounds" />
          </mxGeometry>
        </mxCell>
        <mxCell id="lwnyyeqiQg4ym-uv4TCR-76" value="" style="shape=partialRectangle;html=1;whiteSpace=wrap;collapsible=0;dropTarget=0;pointerEvents=1;fillColor=none;top=0;left=0;bottom=0;right=0;points=[[0,0.5],[1,0.5]];portConstraint=eastwest;" vertex="1" parent="lwnyyeqiQg4ym-uv4TCR-72">
          <mxGeometry y="60" width="150" height="30" as="geometry" />
        </mxCell>
        <mxCell id="lwnyyeqiQg4ym-uv4TCR-77" value="2" style="shape=partialRectangle;html=1;whiteSpace=wrap;connectable=0;fillColor=none;top=0;left=0;bottom=0;right=0;overflow=hidden;pointerEvents=1;" vertex="1" parent="lwnyyeqiQg4ym-uv4TCR-76">
          <mxGeometry width="34" height="30" as="geometry">
            <mxRectangle width="34" height="30" as="alternateBounds" />
          </mxGeometry>
        </mxCell>
        <mxCell id="lwnyyeqiQg4ym-uv4TCR-78" value="ListeSprint" style="shape=partialRectangle;html=1;whiteSpace=wrap;connectable=0;fillColor=none;top=0;left=0;bottom=0;right=0;align=left;spacingLeft=6;overflow=hidden;pointerEvents=1;" vertex="1" parent="lwnyyeqiQg4ym-uv4TCR-76">
          <mxGeometry x="34" width="116" height="30" as="geometry">
            <mxRectangle width="116" height="30" as="alternateBounds" />
          </mxGeometry>
        </mxCell>
        <mxCell id="lwnyyeqiQg4ym-uv4TCR-79" value="" style="shape=partialRectangle;html=1;whiteSpace=wrap;collapsible=0;dropTarget=0;pointerEvents=1;fillColor=none;top=0;left=0;bottom=0;right=0;points=[[0,0.5],[1,0.5]];portConstraint=eastwest;" vertex="1" parent="lwnyyeqiQg4ym-uv4TCR-72">
          <mxGeometry y="90" width="150" height="30" as="geometry" />
        </mxCell>
        <mxCell id="lwnyyeqiQg4ym-uv4TCR-80" value="3" style="shape=partialRectangle;html=1;whiteSpace=wrap;connectable=0;fillColor=none;top=0;left=0;bottom=0;right=0;overflow=hidden;pointerEvents=1;" vertex="1" parent="lwnyyeqiQg4ym-uv4TCR-79">
          <mxGeometry width="34" height="30" as="geometry">
            <mxRectangle width="34" height="30" as="alternateBounds" />
          </mxGeometry>
        </mxCell>
        <mxCell id="lwnyyeqiQg4ym-uv4TCR-81" value="ListeClient" style="shape=partialRectangle;html=1;whiteSpace=wrap;connectable=0;fillColor=none;top=0;left=0;bottom=0;right=0;align=left;spacingLeft=6;overflow=hidden;pointerEvents=1;" vertex="1" parent="lwnyyeqiQg4ym-uv4TCR-79">
          <mxGeometry x="34" width="116" height="30" as="geometry">
            <mxRectangle width="116" height="30" as="alternateBounds" />
          </mxGeometry>
        </mxCell>
        <mxCell id="lwnyyeqiQg4ym-uv4TCR-82" value="Key&lt;br&gt;Sprint1&lt;br&gt;&lt;br&gt;Key&lt;br&gt;Sprint2&lt;br&gt;&lt;br&gt;Key&lt;br&gt;Sprint 3&lt;br&gt;..&lt;br&gt;..&lt;br&gt;.." style="shape=ext;double=1;rounded=1;whiteSpace=wrap;html=1;" vertex="1" parent="WIyWlLk6GJQsqaUBKTNV-1">
          <mxGeometry x="430" y="290" width="60" height="170" as="geometry" />
        </mxCell>
        <mxCell id="lwnyyeqiQg4ym-uv4TCR-83" value="&lt;br&gt;&lt;br&gt;&lt;br&gt;&lt;br&gt;&lt;br&gt;&lt;br&gt;&lt;br&gt;&lt;br&gt;&lt;br&gt;&lt;br&gt;document" style="shape=ext;double=1;rounded=1;whiteSpace=wrap;html=1;" vertex="1" parent="WIyWlLk6GJQsqaUBKTNV-1">
          <mxGeometry x="580" y="280" width="220" height="150" as="geometry" />
        </mxCell>
        <mxCell id="lwnyyeqiQg4ym-uv4TCR-84" value="Sprint" style="shape=table;startSize=30;container=1;collapsible=0;childLayout=tableLayout;fixedRows=1;rowLines=0;fontStyle=1;align=center;pointerEvents=1;" vertex="1" parent="WIyWlLk6GJQsqaUBKTNV-1">
          <mxGeometry x="615" y="290" width="150" height="120" as="geometry" />
        </mxCell>
        <mxCell id="lwnyyeqiQg4ym-uv4TCR-85" value="" style="shape=partialRectangle;html=1;whiteSpace=wrap;collapsible=0;dropTarget=0;pointerEvents=1;fillColor=none;top=0;left=0;bottom=1;right=0;points=[[0,0.5],[1,0.5]];portConstraint=eastwest;" vertex="1" parent="lwnyyeqiQg4ym-uv4TCR-84">
          <mxGeometry y="30" width="150" height="30" as="geometry" />
        </mxCell>
        <mxCell id="lwnyyeqiQg4ym-uv4TCR-86" value="1" style="shape=partialRectangle;html=1;whiteSpace=wrap;connectable=0;fillColor=none;top=0;left=0;bottom=0;right=0;overflow=hidden;pointerEvents=1;" vertex="1" parent="lwnyyeqiQg4ym-uv4TCR-85">
          <mxGeometry width="34" height="30" as="geometry">
            <mxRectangle width="34" height="30" as="alternateBounds" />
          </mxGeometry>
        </mxCell>
        <mxCell id="lwnyyeqiQg4ym-uv4TCR-87" value="IdSprint" style="shape=partialRectangle;html=1;whiteSpace=wrap;connectable=0;fillColor=none;top=0;left=0;bottom=0;right=0;align=left;spacingLeft=6;overflow=hidden;pointerEvents=1;" vertex="1" parent="lwnyyeqiQg4ym-uv4TCR-85">
          <mxGeometry x="34" width="116" height="30" as="geometry">
            <mxRectangle width="116" height="30" as="alternateBounds" />
          </mxGeometry>
        </mxCell>
        <mxCell id="lwnyyeqiQg4ym-uv4TCR-88" value="" style="shape=partialRectangle;html=1;whiteSpace=wrap;collapsible=0;dropTarget=0;pointerEvents=1;fillColor=none;top=0;left=0;bottom=0;right=0;points=[[0,0.5],[1,0.5]];portConstraint=eastwest;" vertex="1" parent="lwnyyeqiQg4ym-uv4TCR-84">
          <mxGeometry y="60" width="150" height="30" as="geometry" />
        </mxCell>
        <mxCell id="lwnyyeqiQg4ym-uv4TCR-89" value="2" style="shape=partialRectangle;html=1;whiteSpace=wrap;connectable=0;fillColor=none;top=0;left=0;bottom=0;right=0;overflow=hidden;pointerEvents=1;" vertex="1" parent="lwnyyeqiQg4ym-uv4TCR-88">
          <mxGeometry width="34" height="30" as="geometry">
            <mxRectangle width="34" height="30" as="alternateBounds" />
          </mxGeometry>
        </mxCell>
        <mxCell id="lwnyyeqiQg4ym-uv4TCR-90" value="ListeSprint" style="shape=partialRectangle;html=1;whiteSpace=wrap;connectable=0;fillColor=none;top=0;left=0;bottom=0;right=0;align=left;spacingLeft=6;overflow=hidden;pointerEvents=1;" vertex="1" parent="lwnyyeqiQg4ym-uv4TCR-88">
          <mxGeometry x="34" width="116" height="30" as="geometry">
            <mxRectangle width="116" height="30" as="alternateBounds" />
          </mxGeometry>
        </mxCell>
        <mxCell id="lwnyyeqiQg4ym-uv4TCR-91" value="" style="shape=partialRectangle;html=1;whiteSpace=wrap;collapsible=0;dropTarget=0;pointerEvents=1;fillColor=none;top=0;left=0;bottom=0;right=0;points=[[0,0.5],[1,0.5]];portConstraint=eastwest;" vertex="1" parent="lwnyyeqiQg4ym-uv4TCR-84">
          <mxGeometry y="90" width="150" height="30" as="geometry" />
        </mxCell>
        <mxCell id="lwnyyeqiQg4ym-uv4TCR-92" value="" style="shape=partialRectangle;html=1;whiteSpace=wrap;connectable=0;fillColor=none;top=0;left=0;bottom=0;right=0;overflow=hidden;pointerEvents=1;" vertex="1" parent="lwnyyeqiQg4ym-uv4TCR-91">
          <mxGeometry width="34" height="30" as="geometry">
            <mxRectangle width="34" height="30" as="alternateBounds" />
          </mxGeometry>
        </mxCell>
        <mxCell id="lwnyyeqiQg4ym-uv4TCR-93" value="" style="shape=partialRectangle;html=1;whiteSpace=wrap;connectable=0;fillColor=none;top=0;left=0;bottom=0;right=0;align=left;spacingLeft=6;overflow=hidden;pointerEvents=1;" vertex="1" parent="lwnyyeqiQg4ym-uv4TCR-91">
          <mxGeometry x="34" width="116" height="30" as="geometry">
            <mxRectangle width="116" height="30" as="alternateBounds" />
          </mxGeometry>
        </mxCell>
      </root>
    </mxGraphModel>
  </diagram>
</mxfile>
